<svg width="48" height="42" viewBox="0 0 48 42" fill="none" xmlns="http://www.w3.org/2000/svg">
<path fill-rule="evenodd" clip-rule="evenodd" d="M13.2442 4V4.0095C10.6372 4.20408 8.5643 7.36212 8.5643 11.2294C8.5643 15.0966 10.6372 18.2546 13.2442 18.4492V18.4588H21.6386V19.1598H10.0981V19.1722C6.7011 19.4257 4 23.5407 4 28.5799C4 33.6191 6.7011 37.734 10.0981 37.9875V38H23V4H13.2442ZM21.6386 37.6517C18.5724 36.0021 16.4655 32.579 16.4655 28.6237C16.4655 24.6684 18.5724 21.2454 21.6386 19.5957V37.6517ZM21.6386 18.1943C19.1608 16.937 17.4561 14.3102 17.4561 11.2732C17.4561 8.23622 19.1608 5.60933 21.6386 4.35197V18.1943Z" fill="#1B1717"/>
<path fill-rule="evenodd" clip-rule="evenodd" d="M34.7558 4V4.0095C37.3628 4.20408 39.4357 7.36212 39.4357 11.2294C39.4357 15.0966 37.3628 18.2546 34.7558 18.4492V18.4588H26.3614V19.1598H37.9019V19.1722C41.2989 19.4257 44 23.5407 44 28.5799C44 33.6191 41.2989 37.734 37.9019 37.9875V38H25V4H34.7558ZM26.3614 37.6517C29.4276 36.0021 31.5345 32.579 31.5345 28.6237C31.5345 24.6684 29.4276 21.2454 26.3614 19.5957V37.6517ZM26.3614 18.1943C28.8392 16.937 30.5439 14.3102 30.5439 11.2732C30.5439 8.23622 28.8392 5.60933 26.3614 4.35197V18.1943Z" fill="#B50000"/>
</svg>
