<svg xmlns="http://www.w3.org/2000/svg" width="48" height="42" fill="none" viewBox="0 0 48 42"><path fill="#f4efe3" fill-rule="evenodd" d="M13.244 4v.01c-2.607.194-4.68 3.352-4.68 7.22s2.073 7.025 4.68 7.22v.009h8.395v.7h-11.54v.013C6.7 19.426 4 23.541 4 28.58c0 5.04 2.701 9.154 6.098 9.407V38H23V4zm8.395 33.652c-3.067-1.65-5.174-5.073-5.174-9.028s2.107-7.379 5.174-9.028zm0-19.458c-2.478-1.257-4.183-3.884-4.183-6.92 0-3.038 1.705-5.665 4.183-6.922z" clip-rule="evenodd"/><path fill="#c62a21" fill-rule="evenodd" d="M34.756 4v.01c2.607.194 4.68 3.352 4.68 7.22s-2.073 7.025-4.68 7.22v.009H26.36v.7H37.9v.013c3.4.254 6.1 4.369 6.1 9.408 0 5.04-2.701 9.154-6.098 9.407V38H25V4zM26.36 37.652c3.067-1.65 5.174-5.073 5.174-9.028s-2.107-7.379-5.174-9.028zm0-19.458c2.478-1.257 4.183-3.884 4.183-6.92 0-3.038-1.705-5.665-4.183-6.922z" clip-rule="evenodd"/></svg>